<?xml version="1.0" standalone="no"?>
<!DOCTYPE svg PUBLIC "-//W3C//DTD SVG 20010904//EN"
 "http://www.w3.org/TR/2001/REC-SVG-20010904/DTD/svg10.dtd">
<svg version="1.0" xmlns="http://www.w3.org/2000/svg"
 width="32" height="32" viewBox="0 0 1024.000000 1024.000000"
 preserveAspectRatio="xMidYMid meet">

<g transform="translate(0.000000,1024.000000) scale(0.100000,-0.100000)"
fill="#000000" stroke="none">
<path d="M1390 10130 c0 -13 11 -13 30 0 12 8 11 10 -7 10 -13 0 -23 -4 -23
-10z"/>
<path d="M8375 9990 c3 -5 8 -10 11 -10 2 0 4 5 4 10 0 6 -5 10 -11 10 -5 0
-7 -4 -4 -10z"/>
<path d="M1027 9690 c10 -11 19 -20 21 -20 1 0 -2 9 -8 20 -6 11 -15 20 -20
20 -6 0 -2 -9 7 -20z"/>
<path d="M7820 8970 c0 -5 9 -10 21 -10 11 0 17 5 14 10 -3 6 -13 10 -21 10
-8 0 -14 -4 -14 -10z"/>
<path d="M960 8815 c0 -9 5 -15 11 -13 6 2 11 8 11 13 0 5 -5 11 -11 13 -6 2
-11 -4 -11 -13z"/>
<path d="M5490 8796 c0 -9 5 -16 10 -16 6 0 10 4 10 9 0 6 -4 13 -10 16 -5 3
-10 -1 -10 -9z"/>
<path d="M5718 8673 c7 -3 16 -2 19 1 4 3 -2 6 -13 5 -11 0 -14 -3 -6 -6z"/>
<path d="M6780 8610 c0 -5 4 -10 9 -10 6 0 13 5 16 10 3 6 -1 10 -9 10 -9 0
-16 -4 -16 -10z"/>
<path d="M6295 8580 c-4 -6 7 -10 27 -9 27 0 30 2 13 9 -27 12 -33 12 -40 0z"/>
<path d="M8362 8493 c-21 -8 -3 -23 29 -23 19 0 29 5 29 15 0 15 -31 19 -58 8z"/>
<path d="M8310 8460 c-13 -8 -13 -10 2 -10 9 0 20 5 23 10 8 13 -5 13 -25 0z"/>
<path d="M8410 8415 c0 -19 4 -35 9 -35 11 0 21 38 14 56 -10 26 -23 14 -23
-21z"/>
<path d="M5438 8383 c7 -3 16 -2 19 1 4 3 -2 6 -13 5 -11 0 -14 -3 -6 -6z"/>
<path d="M5817 8356 c-30 -25 -35 -34 -25 -44 6 -6 15 -12 19 -12 15 0 59 47
59 63 0 28 -14 26 -53 -7z"/>
<path d="M5426 8335 c-9 -26 -7 -32 5 -12 6 10 9 21 6 23 -2 3 -7 -2 -11 -11z"/>
<path d="M8412 8315 c-7 -15 -8 -26 -2 -30 6 -4 13 2 17 12 3 10 8 21 10 25 2
4 -1 9 -5 12 -5 3 -14 -6 -20 -19z"/>
<path d="M8206 8194 c-4 -15 -4 -29 -1 -32 10 -11 38 26 32 42 -9 24 -24 19
-31 -10z"/>
<path d="M4420 7994 c0 -8 5 -12 10 -9 6 4 8 11 5 16 -9 14 -15 11 -15 -7z"/>
<path d="M4625 7780 c-8 -13 -1 -24 14 -19 6 3 7 10 2 18 -6 10 -10 10 -16 1z"/>
<path d="M4600 7680 c8 -5 22 -9 30 -9 10 0 8 3 -5 9 -27 12 -43 12 -25 0z"/>
<path d="M8180 7665 c0 -2 13 -34 30 -70 22 -48 35 -65 49 -65 11 0 23 5 26
11 4 5 21 8 38 5 18 -3 26 -3 19 0 -6 3 -10 10 -7 14 9 15 -33 50 -60 50 -18
0 -25 5 -25 20 0 13 -10 24 -26 30 -28 11 -44 13 -44 5z"/>
<path d="M5005 7580 c-3 -5 -1 -10 4 -10 6 0 11 5 11 10 0 6 -2 10 -4 10 -3 0
-8 -4 -11 -10z"/>
<path d="M8377 7556 c-9 -7 -17 -16 -17 -20 0 -11 27 -6 39 8 16 19 0 27 -22
12z"/>
<path d="M7962 7418 c3 -7 15 -15 27 -16 16 -3 22 1 19 10 -3 7 -15 15 -27 16
-16 3 -22 -1 -19 -10z"/>
<path d="M8026 7385 c-4 -10 1 -15 14 -15 13 0 18 5 14 15 -4 8 -10 15 -14 15
-4 0 -10 -7 -14 -15z"/>
<path d="M8710 7225 c0 -8 5 -15 10 -15 6 0 10 7 10 15 0 8 -4 15 -10 15 -5 0
-10 -7 -10 -15z"/>
<path d="M8747 7163 c-4 -6 0 -19 8 -29 11 -15 14 -16 15 -4 0 21 -16 44 -23
33z"/>
<path d="M8690 6788 c0 -18 20 -38 38 -38 19 0 10 20 -16 38 -19 12 -22 12
-22 0z"/>
<path d="M8370 6631 c-19 -13 -10 -21 35 -28 33 -5 37 -4 33 13 -4 21 -44 30
-68 15z"/>
<path d="M8782 6422 c-19 -3 -21 -6 -11 -18 14 -17 82 -19 77 -2 -5 15 -37 25
-66 20z"/>
<path d="M9470 6145 c-38 -14 -40 -28 -10 -60 19 -20 90 -166 90 -184 0 -18
19 -22 65 -15 47 7 57 22 29 44 -8 8 -21 29 -29 47 -8 19 -21 40 -29 48 -8 8
-22 36 -32 62 -18 51 -32 74 -43 72 -3 -1 -22 -7 -41 -14z"/>
<path d="M3697 6123 c-4 -3 -7 -11 -7 -17 0 -6 5 -5 12 2 6 6 9 14 7 17 -3 3
-9 2 -12 -2z"/>
<path d="M2510 5810 c-19 -10 -45 -35 -57 -56 -28 -50 -83 -160 -83 -168 0 -3
-10 -16 -22 -28 -41 -41 -1 -35 127 16 17 6 46 22 65 34 19 12 55 30 80 39 25
9 47 20 50 23 3 3 24 11 46 18 23 7 47 19 54 27 7 8 19 15 27 15 8 0 11 5 8
10 -4 6 -10 8 -15 5 -4 -3 -11 1 -13 7 -3 7 -6 8 -6 2 -1 -13 -61 -6 -61 7 0
5 5 9 10 9 17 0 -12 38 -37 49 -36 17 -133 11 -173 -9z"/>
<path d="M2730 5785 c7 -8 25 -15 41 -15 15 0 31 -4 34 -10 8 -14 45 -13 45 1
0 6 -9 9 -20 6 -11 -3 -20 -2 -20 2 0 11 -47 31 -72 31 -17 0 -18 -2 -8 -15z"/>
<path d="M7650 5779 c0 -5 5 -7 10 -4 6 3 10 8 10 11 0 2 -4 4 -10 4 -5 0 -10
-5 -10 -11z"/>
<path d="M9616 5763 c-3 -7 3 -17 14 -23 11 -6 24 -28 30 -49 5 -21 19 -46 30
-56 11 -10 20 -28 20 -40 0 -11 11 -36 25 -55 14 -19 25 -37 25 -41 0 -5 11
-25 25 -45 14 -20 25 -48 25 -61 0 -27 -9 -27 105 -7 19 3 35 10 35 16 0 5
-18 37 -40 71 -23 34 -43 72 -46 85 -4 12 -9 22 -13 22 -4 0 -13 12 -20 27 -7
15 -34 60 -59 100 l-47 72 -52 -2 c-31 -1 -55 -7 -57 -14z"/>
<path d="M2187 5682 c-10 -10 -23 -19 -30 -20 -49 -6 -88 -19 -144 -48 -35
-19 -72 -34 -81 -34 -9 0 -24 -5 -32 -10 -13 -9 -13 -11 0 -20 8 -5 26 -10 38
-10 13 0 38 -6 55 -13 36 -16 100 -37 110 -37 4 0 7 5 7 12 0 6 7 20 17 30 18
20 36 50 53 86 5 13 17 30 25 38 16 17 20 44 7 44 -5 0 -16 -8 -25 -18z"/>
<path d="M7165 5671 c-10 -16 2 -30 42 -46 41 -17 89 -20 98 -5 10 16 45 12
45 -5 0 -11 11 -15 40 -15 29 0 42 -5 50 -20 12 -23 37 -25 63 -6 17 13 16 15
-15 21 -18 4 -44 13 -58 20 -51 27 -90 37 -116 31 -18 -5 -32 -2 -45 10 -22
20 -94 30 -104 15z"/>
<path d="M7526 5573 c-10 -10 25 -43 46 -43 10 0 18 4 18 10 0 12 -55 41 -64
33z"/>
<path d="M8650 5566 c0 -9 5 -16 10 -16 6 0 10 4 10 9 0 6 -4 13 -10 16 -5 3
-10 -1 -10 -9z"/>
<path d="M7771 5528 c35 -66 89 -87 89 -36 0 25 -47 58 -81 58 -17 0 -18 -3
-8 -22z"/>
<path d="M7987 5473 c-10 -9 -9 -43 1 -43 15 0 30 22 25 36 -6 15 -16 18 -26
7z"/>
<path d="M1580 5443 c-8 -3 -22 -11 -30 -18 -8 -8 -28 -15 -45 -17 -25 -2 -35
-12 -58 -58 -15 -30 -38 -71 -52 -90 -13 -19 -27 -47 -30 -62 -4 -16 -10 -28
-14 -28 -10 0 -45 -69 -39 -76 3 -3 23 4 44 15 21 12 44 21 51 21 7 0 50 17
95 39 46 21 115 51 153 65 39 15 88 35 110 46 22 10 63 28 92 41 40 18 49 26
41 36 -6 7 -17 13 -25 13 -22 0 -164 40 -198 55 -39 18 -76 25 -95 18z"/>
<path d="M8140 5405 c0 -8 5 -15 10 -15 6 0 10 7 10 15 0 8 -4 15 -10 15 -5 0
-10 -7 -10 -15z"/>
<path d="M8311 5391 c-33 -21 25 -71 83 -71 33 0 13 35 -26 44 -21 5 -38 15
-40 22 -2 9 -8 10 -17 5z"/>
<path d="M8625 5303 c-9 -47 7 -60 84 -68 31 -3 69 -13 86 -21 16 -8 51 -18
77 -21 26 -3 45 -10 42 -14 -5 -8 9 -12 41 -12 6 0 27 2 47 6 31 5 38 2 43
-14 9 -27 88 -28 83 -1 -2 9 -11 16 -21 16 -9 -1 -17 2 -17 7 0 5 -7 9 -15 9
-8 0 -15 -5 -15 -10 0 -6 -16 4 -36 22 -37 34 -84 54 -84 36 0 -7 -5 -6 -14 1
-10 8 -16 9 -21 1 -10 -16 -26 -12 -23 7 2 12 -7 19 -32 26 -19 5 -54 15 -78
23 -33 10 -48 10 -61 2 -26 -16 -54 -3 -46 22 5 15 2 20 -13 20 -15 0 -22 -9
-27 -37z"/>
<path d="M1135 5260 c-16 -11 -41 -20 -55 -20 -14 0 -34 -7 -44 -15 -11 -8
-29 -15 -40 -15 -29 -1 -76 -37 -56 -43 8 -2 31 -10 50 -16 110 -40 131 -37
145 16 3 15 20 42 36 61 44 50 22 70 -36 32z"/>
<path d="M9800 5085 c0 -9 5 -15 11 -13 6 2 11 8 11 13 0 5 -5 11 -11 13 -6 2
-11 -4 -11 -13z"/>
<path d="M587 5039 c-53 -28 -60 -36 -98 -112 -22 -45 -53 -104 -69 -132 -16
-27 -29 -56 -30 -62 0 -18 45 -16 60 2 7 8 24 15 38 15 13 0 41 10 61 23 37
23 59 32 146 63 28 10 83 33 123 51 40 18 79 33 88 33 8 0 17 7 20 15 4 9 19
15 39 15 38 0 56 17 28 26 -10 3 -26 10 -35 15 -10 5 -26 9 -37 9 -10 0 -52
14 -92 32 -105 44 -167 46 -242 7z"/>
<path d="M9727 5026 c-15 -23 -16 -26 -2 -26 17 0 29 22 23 41 -2 6 -12 0 -21
-15z"/>
<path d="M225 4896 c-11 -7 -36 -17 -55 -21 -19 -4 -49 -16 -66 -26 -18 -11
-49 -25 -70 -33 l-39 -13 52 -27 c29 -14 66 -26 82 -26 16 0 33 -4 36 -10 11
-18 33 -11 41 13 3 12 19 48 35 81 16 32 29 62 29 67 0 13 -23 11 -45 -5z"/>
<path d="M0 4590 c0 -28 2 -30 28 -24 43 11 46 16 21 35 -35 27 -49 24 -49
-11z"/>
<path d="M8927 3853 c-4 -3 -7 -12 -7 -20 0 -15 26 -18 34 -4 7 11 -18 33 -27
24z"/>
<path d="M8825 3830 c-3 -5 -1 -10 4 -10 6 0 11 5 11 10 0 6 -2 10 -4 10 -3 0
-8 -4 -11 -10z"/>
<path d="M9600 3806 c0 -9 5 -16 10 -16 6 0 10 4 10 9 0 6 -4 13 -10 16 -5 3
-10 -1 -10 -9z"/>
<path d="M8908 3793 c-22 -5 -23 -17 -2 -37 18 -18 24 -19 42 -7 18 11 -17 49
-40 44z"/>
<path d="M8894 3613 c-11 -12 -13 -18 -5 -21 13 -4 41 16 41 29 0 14 -17 10
-36 -8z"/>
<path d="M8470 3585 c0 -8 5 -15 10 -15 6 0 10 7 10 15 0 8 -4 15 -10 15 -5 0
-10 -7 -10 -15z"/>
<path d="M8480 3512 c0 -23 4 -42 9 -42 6 0 7 17 4 38 -8 51 -13 53 -13 4z"/>
<path d="M9710 3543 c0 -5 5 -15 10 -23 8 -12 10 -11 10 8 0 12 -4 22 -10 22
-5 0 -10 -3 -10 -7z"/>
<path d="M8447 3420 c-10 -27 -17 -190 -8 -190 14 0 31 142 22 176 -6 20 -10
24 -14 14z"/>
<path d="M9817 3374 c-23 -30 -22 -47 7 -108 13 -28 32 -69 42 -91 l18 -40 8
95 c9 105 1 141 -35 157 -18 9 -25 6 -40 -13z"/>
<path d="M1360 3355 c0 -2 10 -10 23 -16 20 -11 21 -11 8 4 -13 16 -31 23 -31
12z"/>
<path d="M8950 3325 c0 -8 7 -15 15 -15 8 0 15 7 15 15 0 8 -7 15 -15 15 -8 0
-15 -7 -15 -15z"/>
<path d="M8406 3144 c-9 -66 -8 -154 2 -154 5 0 9 6 9 13 0 6 3 51 7 100 8 92
-6 124 -18 41z"/>
<path d="M9890 3092 c0 -4 5 -13 12 -20 7 -7 17 -31 24 -55 24 -88 53 -157 66
-157 12 0 10 22 -7 53 -8 16 -17 51 -21 78 -4 29 -14 55 -23 62 -10 7 -20 20
-24 30 -6 17 -27 24 -27 9z"/>
<path d="M8870 3005 c0 -8 7 -15 15 -15 8 0 15 7 15 15 0 8 -7 15 -15 15 -8 0
-15 -7 -15 -15z"/>
<path d="M7602 2992 c-9 -6 -5 -12 13 -20 39 -18 54 -15 48 8 -6 21 -37 27
-61 12z"/>
<path d="M1276 2942 c-7 -12 6 -132 15 -132 4 0 8 32 7 70 0 63 -8 84 -22 62z"/>
<path d="M8376 2933 c-3 -3 -6 -45 -6 -93 0 -51 -5 -91 -12 -98 -6 -6 -14 -60
-17 -121 -4 -66 -12 -115 -20 -125 -7 -8 -11 -21 -8 -28 3 -9 7 -6 13 7 4 11
13 25 20 30 8 6 14 51 16 120 3 61 10 120 17 133 6 12 13 56 15 97 4 70 -2 94
-18 78z"/>
<path d="M7584 2915 c-4 -10 -13 -13 -24 -10 -22 7 -34 -21 -24 -59 5 -23 9
-25 22 -14 12 10 16 10 19 1 9 -25 33 -14 33 15 -1 15 2 39 6 55 5 21 3 27
-10 27 -9 0 -19 -7 -22 -15z"/>
<path d="M7674 2896 c-6 -26 1 -46 16 -46 12 0 22 34 14 54 -9 23 -23 20 -30
-8z"/>
<path d="M10004 2813 c2 -10 8 -29 11 -43 4 -14 13 -32 20 -40 7 -8 16 -30 20
-48 3 -17 17 -53 31 -78 13 -25 24 -53 24 -62 0 -9 11 -39 25 -67 13 -27 25
-58 25 -67 0 -9 4 -19 9 -23 5 -3 13 -19 16 -36 4 -17 17 -52 29 -78 l21 -46
3 39 c2 25 -5 56 -21 90 -13 28 -28 62 -32 76 -4 14 -11 30 -15 35 -4 6 -10
25 -14 43 -3 19 -15 45 -26 59 -11 14 -27 48 -35 74 -7 27 -21 59 -29 71 -9
12 -16 34 -16 48 0 28 -25 70 -41 70 -6 0 -8 -8 -5 -17z"/>
<path d="M7680 2780 c0 -34 11 -70 20 -70 19 0 19 35 0 64 -19 30 -20 31 -20
6z"/>
<path d="M7620 2740 c-13 -8 -13 -11 3 -27 16 -16 17 -16 17 10 0 30 0 30 -20
17z"/>
<path d="M8651 2728 c-1 -15 4 -30 9 -33 12 -7 12 12 0 40 -8 18 -9 17 -9 -7z"/>
<path d="M1275 2720 c-3 -5 -1 -18 4 -27 9 -16 10 -14 11 10 0 28 -5 34 -15
17z"/>
<path d="M7630 2625 c-13 -24 -21 -48 -17 -52 12 -11 57 47 57 74 0 35 -13 28
-40 -22z"/>
<path d="M1280 2573 c0 -52 15 -90 24 -63 11 36 13 76 5 92 -17 32 -29 19 -29
-29z"/>
<path d="M8496 2604 c-8 -22 -7 -34 3 -34 12 0 21 39 11 45 -4 3 -11 -2 -14
-11z"/>
<path d="M8852 2603 c-15 -6 -6 -23 14 -23 8 0 14 7 14 15 0 15 -6 17 -28 8z"/>
<path d="M7473 2430 c0 -25 2 -35 4 -22 2 12 2 32 0 45 -2 12 -4 2 -4 -23z"/>
<path d="M8307 2444 c-10 -10 -9 -94 1 -94 12 0 42 34 42 48 0 7 -4 12 -8 12
-5 0 -13 9 -18 21 -5 11 -13 17 -17 13z"/>
<path d="M1290 2418 c-1 -13 -3 -57 -6 -98 -2 -47 -1 -69 5 -60 11 19 19 180
9 180 -5 0 -8 -10 -8 -22z"/>
<path d="M7512 2374 c1 -9 9 -19 16 -22 9 -3 13 2 10 14 -1 9 -9 19 -16 22 -9
3 -13 -2 -10 -14z"/>
<path d="M7714 2265 c-18 -28 -14 -41 11 -32 8 4 15 18 15 32 0 32 -5 32 -26
0z"/>
<path d="M6650 2255 c-9 -11 -10 -19 -2 -27 14 -14 32 -1 32 23 0 23 -13 25
-30 4z"/>
<path d="M1278 2224 c-5 -28 3 -114 12 -114 13 0 21 49 14 86 -7 38 -21 53
-26 28z"/>
<path d="M1580 2190 c0 -5 5 -10 10 -10 6 0 10 5 10 10 0 6 -4 10 -10 10 -5 0
-10 -4 -10 -10z"/>
<path d="M6590 2171 c1 -17 31 -43 44 -38 23 9 8 42 -20 43 -13 1 -24 -1 -24
-5z"/>
<path d="M6620 2081 c0 -5 3 -17 6 -26 5 -12 9 -14 14 -4 5 7 6 18 3 26 -6 15
-23 18 -23 4z"/>
<path d="M6672 2038 c-19 -19 -15 -25 18 -30 26 -4 30 -1 30 19 0 25 -27 32
-48 11z"/>
<path d="M1280 2013 c0 -10 5 -25 10 -33 8 -13 12 -13 27 3 17 18 17 19 -1 33
-26 19 -36 18 -36 -3z"/>
<path d="M6630 1905 c0 -41 12 -45 29 -9 12 28 7 44 -15 44 -9 0 -14 -11 -14
-35z"/>
<path d="M1280 1798 c0 -61 15 -55 26 10 5 35 4 42 -10 42 -13 0 -16 -11 -16
-52z"/>
<path d="M6651 1766 c-13 -16 -2 -29 16 -18 7 4 8 13 4 20 -6 10 -10 10 -20
-2z"/>
<path d="M6620 1721 c0 -10 9 -21 20 -24 25 -6 26 1 3 20 -10 8 -12 11 -4 7 9
-5 12 -3 7 4 -11 18 -26 14 -26 -7z"/>
<path d="M6570 1672 c0 -15 -5 -33 -11 -39 -7 -7 -8 -19 -4 -30 7 -16 9 -15
14 7 4 16 15 26 29 28 28 4 29 37 3 52 -28 15 -31 13 -31 -18z"/>
<path d="M6570 1566 c0 -16 26 -46 41 -46 17 0 9 39 -10 50 -26 13 -31 13 -31
-4z"/>
<path d="M3600 1530 c0 -5 9 -10 21 -10 11 0 17 5 14 10 -3 6 -13 10 -21 10
-8 0 -14 -4 -14 -10z"/>
<path d="M3642 1511 c-11 -7 -11 -9 1 -14 16 -6 27 0 27 15 0 10 -11 10 -28
-1z"/>
<path d="M6655 1490 c3 -5 10 -10 16 -10 5 0 9 5 9 10 0 6 -7 10 -16 10 -8 0
-12 -4 -9 -10z"/>
<path d="M3607 1472 c-10 -2 -16 -9 -14 -15 5 -15 49 -16 54 -1 5 14 -15 22
-40 16z"/>
<path d="M6595 1330 c-3 -5 -2 -10 4 -10 5 0 13 5 16 10 3 6 2 10 -4 10 -5 0
-13 -4 -16 -10z"/>
<path d="M4500 1300 c0 -11 -4 -20 -10 -20 -5 0 -12 -11 -16 -24 -3 -14 -12
-27 -20 -30 -8 -3 -14 -19 -14 -36 0 -18 -6 -33 -15 -36 -8 -4 -15 -14 -15
-24 0 -22 29 -80 40 -80 11 0 20 27 20 63 0 18 9 47 21 66 14 23 19 44 15 63
-3 15 -1 39 4 53 6 16 6 25 0 25 -6 0 -10 -9 -10 -20z"/>
<path d="M6555 1299 c-4 -5 -18 -14 -31 -19 -13 -5 -24 -14 -24 -20 0 -19 26
-10 55 20 16 17 24 30 17 30 -6 0 -14 -5 -17 -11z"/>
<path d="M6457 1234 c-8 -8 1 -24 14 -24 5 0 9 7 9 15 0 15 -12 20 -23 9z"/>
<path d="M6420 1190 c-9 -6 -10 -10 -3 -10 6 0 15 5 18 10 8 12 4 12 -15 0z"/>
<path d="M6320 1120 c0 -5 5 -10 10 -10 6 0 10 5 10 10 0 6 -4 10 -10 10 -5 0
-10 -4 -10 -10z"/>
<path d="M4422 1008 c-6 -7 -13 -25 -17 -41 -11 -41 11 -33 25 9 13 38 9 52
-8 32z"/>
<path d="M6110 960 c-9 -16 -8 -20 5 -20 8 0 15 9 15 20 0 11 -2 20 -5 20 -2
0 -9 -9 -15 -20z"/>
<path d="M845 950 c-3 -5 -1 -10 4 -10 6 0 11 5 11 10 0 6 -2 10 -4 10 -3 0
-8 -4 -11 -10z"/>
<path d="M5659 653 c-17 -46 9 -74 31 -33 12 22 5 60 -11 60 -5 0 -14 -12 -20
-27z"/>
<path d="M2000 310 c-8 -5 -12 -12 -8 -15 9 -10 79 6 72 16 -7 12 -45 11 -64
-1z"/>
<path d="M2340 100 c0 -5 5 -10 11 -10 5 0 7 5 4 10 -3 6 -8 10 -11 10 -2 0
-4 -4 -4 -10z"/>
</g>
</svg>
